<?xml version="1.0" encoding="UTF-8"?>
<svg id="Layer_1" xmlns="http://www.w3.org/2000/svg" version="1.1" viewBox="0 0 95 95">
  <!-- Generator: Adobe Illustrator 29.1.0, SVG Export Plug-In . SVG Version: 2.1.0 Build 142)  -->
  <defs>
    <style>
      .st0 {
        fill: #efcd48;
      }

      .st1 {
        fill: none;
        stroke: #150b01;
        stroke-miterlimit: 10;
        stroke-width: 3px;
      }
    </style>
  </defs>
  <polygon class="st0" points="78 70.5 76.6 68.4 76.6 58.5 74.5 57.8 73.8 55.7 82.3 55.7 81.6 57.8 79.4 58.5 79.4 68.4 78 70.5"/>
  <polygon class="st0" points="59.5 79.5 61.8 78.3 71.6 79.2 72.5 77.1 74.7 76.6 73.9 85.1 71.9 84.2 71.4 82 61.5 81.1 59.5 79.5"/>
  <polygon class="st0" points="57.7 75.6 55.2 76.6 44.6 74.2 43.4 76.3 40.9 76.6 43 67.5 45.1 68.8 45.3 71.2 55.9 73.6 57.7 75.6"/>
  <polygon class="st1" points="19.1 74.8 10.2 66.6 48.5 31 55.1 37.7 19.1 74.8"/>
  <path class="st1" d="M54.8,38s4.3-1.7,7,1-.4,4.9,4.3,9.6l12.9-11.6c-4.7-4.7-8.6-2-11.3-4.7-2-2-.5-8.1-.5-8.1l-7.9-6.6c-8-8-22.8-4.5-22.8-4.5,4.3,2.7,8.3,5.8,12,9.3h0c2.4,2.4,2.4,6.2,0,8.6h0"/>
  <line class="st1" x1="43.5" y1="35.5" x2="51" y2="43"/>
</svg>