<?xml version="1.0" encoding="UTF-8"?>
<svg id="Layer_1" xmlns="http://www.w3.org/2000/svg" version="1.1" viewBox="0 0 95 95">
  <!-- Generator: Adobe Illustrator 29.1.0, SVG Export Plug-In . SVG Version: 2.1.0 Build 142)  -->
  <defs>
    <style>
      .st0 {
        fill: #efcd48;
      }

      .st1 {
        fill: none;
        stroke: #150b01;
        stroke-miterlimit: 10;
        stroke-width: 3px;
      }
    </style>
  </defs>
  <path class="st0" d="M36.7,68.1c.2,5.8,5,10.3,10.7,10.1,5.5-.2,9.9-4.6,10.1-10.1,0-2.1-.6-4.1-1.8-5.8-1.4-2.1-6.3-5.1-6.6-11.1v-.6c-1.3,1.1-2.3,2.5-3,4-1.2,3.1-1.5,6.5-.8,9.8v.2c-1.3-.3-2.4-1.3-2.9-2.7h0c-.3-.9-.4-1.9-.2-2.9-.4.2-.7.4-1.1.7h0c-2.7,1.8-4.4,5-4.4,8.4Z"/>
  <path class="st1" d="M75.4,54.9c0,12.8-12.6,23.1-28,23.1h0c-15.4,0-27.9-10.3-27.2-23s3-10.6,8-14.9c4.1-3.5,13.7-12.8,13.7-22.8v-1.4c3.5,2.4,6.3,5.4,8.1,8.9,5,9.2,2.1,19.6,2.1,19.6,0,0,5.7-.4,8-4.5,1.2-2,1-6.6,1.7-6.3,0,0,13.7,7.1,13.7,21.3h0Z"/>
</svg>