<?xml version="1.0" encoding="UTF-8"?>
<svg id="Layer_1" xmlns="http://www.w3.org/2000/svg" version="1.1" viewBox="0 0 95 95">
  <!-- Generator: Adobe Illustrator 29.1.0, SVG Export Plug-In . SVG Version: 2.1.0 Build 142)  -->
  <defs>
    <style>
      .st0 {
        fill: #efcd48;
      }

      .st1 {
        fill: none;
        stroke: #150b01;
        stroke-miterlimit: 10;
        stroke-width: 4px;
      }
    </style>
  </defs>
  <circle class="st0" cx="58.4" cy="56.3" r="3.1"/>
  <circle class="st0" cx="61.5" cy="46.2" r="3.1"/>
  <circle class="st0" cx="38.1" cy="56.7" r="3.3"/>
  <circle class="st0" cx="43.3" cy="33.9" r="3.5"/>
  <circle class="st0" cx="56.8" cy="33.9" r="2.8"/>
  <circle class="st0" cx="49.8" cy="60.9" r="2.8"/>
  <circle class="st0" cx="53.3" cy="50" r="2.8"/>
  <circle class="st0" cx="43.3" cy="47.8" r="2.8"/>
  <circle class="st0" cx="50.5" cy="42.2" r="2.8"/>
  <circle class="st0" cx="34.8" cy="44" r="2.8"/>
  <path class="st0" d="M66.9,17.7l-.5-.2c-.9-.7-1.5-1.2-1.9-1.4-.7-.5-1.6-1.1-2.5-.4-.6.5-.7,1.5-.2,2.1.2.4.4.8.6,1.1,0,0,0,.8-1,2.9v.2c-.6.6-1.3,1.5-1.6,2l-.2.5,2.5,1.5v-.3c.2-.2.4-.3.6-.5.4-.6,1-1.3,1.3-1.8,1.1-1.4,1.7-1.9,2.4-1.9s.8,0,1.2.2c.5,0,1.8.3,2.2-.9s-.2-1.6-2.7-3.3h0s-.2.2-.2.2Z"/>
  <path class="st0" d="M24.9,56.7l-.9-2.7h0c-.5,0-1.1.2-1.5.4h0c-2.1.6-4.2,1.1-5.1.4-.4-.3-.8-.6-1.2-1.1-.5-.4-1.3-1.3-2.4-.6s-1,1.4.2,4.8l.2.6c.4,1.3.7,2.3.9,2.9.3.9.5,1.9,1.6,2h0c1.2,0,1.5-1.1,1.6-1.6.1-.6.4-1.1.6-1.7.2-.5,1.1-1.5,4.4-2.9l1.4-.3v-.2s.2,0,.2,0Z"/>
  <path class="st0" d="M78.5,59.9c-.5-.6-1.4-.8-2.2-.4-.5,0-1,.3-1.5.4-.8,0-3-1.3-3.8-1.9-.2-.3-.6-.5-.9-.9h0l-.9,1.2h0l-.2.2-.7.8h0c.5.4.8.8,1.2.9h0c1.7,1.5,2.5,2.7,2.4,3.5s0,.8-.2,1.2c-.4.9,0,1.9.8,2.4.2.2.5.2.8.2.7,0,1.3-.9,2.7-2.7l.3-.5c.8-1,1.4-1.6,1.7-2.1.6-.7,1.4-1.5.6-2.5h-.2v.2h0Z"/>
  <path class="st0" d="M64.3,76.2c0-.8-.8-1.4-1.7-1.4-.5-.2-1-.2-1.5-.4-.7-.3-2-2.6-2.4-3.5,0-.4-.2-.7-.4-1.2h0l-1.4.5h-.3l-1,.5h0c.2.6.3,1.1.5,1.4h0c.8,2.1.9,3.6.4,4.2s-.5.7-.8,1c-.8.6-1.1,1.6-.5,2.5,0,.3.4.5.6.6.7.3,1.6,0,3.7-1l.5-.2c1.2-.5,2-.7,2.5-.9.9-.3,2-.6,1.8-1.9h-.2l.2-.2Z"/>
  <path class="st0" d="M27.8,33.4l-.7-.5c-.7-.6-1.5-1-2.2-1.5-2-1.5-2.7-2.4-2.7-3.5s.2-1.3.2-1.7c0-.6.3-2-.9-2.4s-1.5,0-3.6,3.4l-.4.6c-.8,1.3-1.4,2.2-1.8,2.8-.6.9-1.2,1.9-.4,2.7.6.6,1.6.6,2.3,0,.5-.3,1-.6,1.5-.8.4-.2,1.4-.2,4.1,1.2l.2.2c.8.7,1.8,1.3,2.7,1.9l.8-1.3h0l1-1.4v.3h-.1Z"/>
  <path class="st0" d="M38.2,79.8c-.3-.3-.6-.7-.7-1.1-.2-.3-.3-1.3.2-3.8,0-.3.3-.7.4-1.1h0c.4-1.7,1.4-4.6,1.4-4.8l-2.8-1.1c0,.5-1.5,5.1-1.8,6h0c-.5,1.1-1.1,2.7-1.8,2.8h-1.1c-.5,0-1.7,0-1.9,1.3s.4,1.6,3.2,2.8h.5c1,.6,1.8.9,2.3,1.2.4,0,.8.3,1.2.4s1-.2,1.4-.5c.4-.6.3-1.4-.3-2.2h-.2Z"/>
  <path class="st0" d="M36.4,14.4c.4.1.9.2,1.3.4.3.2,1,.8,2.1,3.2,0,.3.2.7.4,1.1h0c.6,1.6,1.6,4.5,1.8,4.7l2.9-.8c-.2-.4-1.8-5-2.2-5.9h0c-.3-1.2-.7-2.8-.2-3.3.4-.2.5-.5.8-.8.4-.2,1.3-1.1.7-2.2s-1.2-1-4.3-.3l-.4.2c-1.2.2-2,.4-2.5.4-.4.2-.8.2-1.1.4s-.7.7-.8,1.2c0,.8.6,1.3,1.5,1.6h0Z"/>
  <path class="st0" d="M83.9,37.5l-.2-.6c-.4-1.3-.7-2.3-.8-2.9-.3-1-.6-2-1.8-2s-1.4,1.3-1.5,1.7c0,.6-.2,1.1-.4,1.7-.3,1-2.4,2.1-3.5,2.6h0l-2.6,1-2.8,1.1,1,2.8,3-1.2,1.4-.6h0c.4-.2.9-.4,1.3-.5h0c2-.7,3.3-.8,3.9-.3.4.3.7.6,1,1,.4.4,1.2,1.3,2.3.7s.8-1-.3-4.5Z"/>
  <circle class="st1" cx="48.1" cy="46.8" r="24.3"/>
</svg>