<?xml version="1.0" encoding="UTF-8"?>
<svg id="Layer_1" xmlns="http://www.w3.org/2000/svg" version="1.1" viewBox="0 0 95 95">
  <!-- Generator: Adobe Illustrator 29.1.0, SVG Export Plug-In . SVG Version: 2.1.0 Build 142)  -->
  <defs>
    <style>
      .st0 {
        fill: #efcd48;
      }

      .st1 {
        fill: none;
        stroke: #150b01;
        stroke-miterlimit: 10;
        stroke-width: 3px;
      }
    </style>
  </defs>
  <path class="st0" d="M11.6,46h0c.6,2.6,2,3.8,4.7,4.7h0c-2.4.9-3.7,2-4.7,4.7h0c-1-2.9-1.3-3.5-4.7-4.7h0c2.9-1,4-2,4.7-4.7Z"/>
  <path class="st0" d="M23.7,40.3h0c.6,2.6,2,3.8,4.7,4.7h0c-2.4.9-3.7,2-4.7,4.7h0c-1-2.9-1.3-3.5-4.7-4.7h0c2.9-1,4-2,4.7-4.7Z"/>
  <path class="st0" d="M23.9,24.9h0c1.2,3.3,2.8,5.1,5.9,5.9h0c-3.1,1.1-4.5,2.2-5.9,5.9h0c-1.1-4-2.2-4.6-5.9-5.9h0c4.4-1.2,4.8-2.9,5.9-5.9Z"/>
  <path class="st0" d="M42.1,41.2h0c1.1,3,2.6,4.6,5.4,5.4h0c-2.9,1-4.1,2-5.4,5.4h0c-1-3.7-2-4.2-5.4-5.4h0c4-1.1,4.4-2.7,5.4-5.4Z"/>
  <circle class="st1" cx="76" cy="70" r="6"/>
  <path class="st1" d="M72.7,75h-16.7c-10.8-10,1-16.8,1-16.8v-22.2c0-3.9,3.1-7,7-7h16v36.5"/>
  <path class="st1" d="M31.1,66l5.6-40.5c.5-3.4,3.4-6,6.8-6l17.7-1.5c3.9,0,7,3.1,7,7v5"/>
  <polygon class="st1" points="37.5 66 23.9 66 18.5 75 43.5 75 37.5 66"/>
</svg>