<?xml version="1.0" encoding="UTF-8"?>
<svg id="Layer_1" xmlns="http://www.w3.org/2000/svg" version="1.1" viewBox="0 0 95 95">
  <!-- Generator: Adobe Illustrator 29.1.0, SVG Export Plug-In . SVG Version: 2.1.0 Build 142)  -->
  <defs>
    <style>
      .st0 {
        fill: #efcd48;
      }

      .st1 {
        fill: none;
        stroke: #150b01;
        stroke-miterlimit: 10;
        stroke-width: 3px;
      }
    </style>
  </defs>
  <polygon class="st0" points="60.5 46.8 50.5 49.5 57.9 26.5 31.6 61.1 44.2 58.1 36.4 78.4 60.5 46.8"/>
  <path class="st1" d="M27.4,28.5s-.9,2.4,0,0c4.1-11.7,17-17.9,28.7-13.7,7,2.5,12.4,8.3,14.3,15.4.3,1,.5,2,.6,3.1"/>
  <path class="st1" d="M32.3,29.5c-13.2-1.7-20.5,8.8-19.6,17.7.2,2,.8,4,1.7,5.8h67.6c3.5-7.1.5-15.6-6.5-19-1.5-.7-3-1.2-4.6-1.4-2.5-.3-5.1,0-7.5,1.2"/>
</svg>