<?xml version="1.0" encoding="UTF-8"?>
<svg id="Layer_1" xmlns="http://www.w3.org/2000/svg" version="1.1" viewBox="0 0 95 95">
  <!-- Generator: Adobe Illustrator 29.1.0, SVG Export Plug-In . SVG Version: 2.1.0 Build 142)  -->
  <defs>
    <style>
      .st0 {
        fill: #efcd48;
      }

      .st1 {
        fill: none;
        stroke: #150b01;
        stroke-miterlimit: 10;
        stroke-width: 4px;
      }
    </style>
  </defs>
  <path class="st0" d="M56.1,30.3c1.2,0,2.1-1,2.1-2.2s-1-2.1-2.2-2.1-2.1,1-2.1,2.1,1,2.2,2.2,2.2h0Z"/>
  <path class="st0" d="M67.9,46.1c-1.5,0-2.6,1.2-2.6,2.6s1.2,2.6,2.6,2.6,2.6-1.2,2.6-2.6h0c0-1.5-1.2-2.6-2.6-2.6Z"/>
  <path class="st0" d="M40.1,29c1.2,0,2.1-1,2.1-2.1s-1-2.1-2.1-2.1-2.1,1-2.1,2.1.9,2.1,2.1,2.1h0Z"/>
  <circle class="st0" cx="21.5" cy="41.6" r="2.1"/>
  <path class="st0" d="M33.2,35.7c1.2,0,2.1-1,2.1-2.1s-1-2.1-2.1-2.1-2.1,1-2.1,2.1.9,2.1,2.1,2.1h0Z"/>
  <path class="st0" d="M66,54.3c-.7-.2-1.2-.3-1.9-.3h-.5c.7-1.6,1.1-3.3,1.1-5s0-2-.4-2.9c2.1-.6,3.5-3.1,2.9-5.6-.5-2.5-2.7-4-4.8-3.4-1.3.3-2.4,1.4-2.8,2.8-1.2-.6-2.4-.9-3.7-.9h-.9c0-.6,0-1.2.3-1.9,0-4.8-3.3-8.8-7.5-8.8s-7.2,3.4-7.6,8.1c-.4-.2-.9-.2-1.3-.2-3.7,0-6.8,3.1-7.6,7.3-.7-1.2-2-2-3.3-2-2.3.2-3.9,2.3-3.9,4.8.1,2,1.3,3.9,3.1,4.3-.7,1.7-.8,3.7-.5,5.6-4.3,1.4-6.8,6.5-5.6,11.6.4,1.6,1.1,3.1,2.1,4.2l24.5-14.3,21.3,11.9c3.2-3.3,3.6-8.8.8-12.6-.8-1.4-2.3-2.3-3.7-2.8h-.1Z"/>
  <circle class="st0" cx="63.2" cy="33.6" r="2.1"/>
  <path class="st1" d="M85.5,77.5c3.7,1.8-38-19-38-19,0,0-42.8,21.4-38,19"/>
  <path class="st1" d="M47.5,59v-19s0-36.4,0-29.5"/>
</svg>